<svg xmlns="http://www.w3.org/2000/svg" width="235.2" height="35" viewBox="0 0 235.2 35"><rect class="svg__rect" x="0" y="0" width="127.05" height="35" fill="#666666"/><rect class="svg__rect" x="125.05" y="0" width="110.14999999999998" height="35" fill="#F15A23"/><path class="svg__text" d="M15.78 22L14.31 22L14.31 13.47L15.78 13.47L15.78 22ZM22.07 22L20.59 22L20.59 13.47L22.07 13.47L25.89 19.54L25.89 13.47L27.36 13.47L27.36 22L25.88 22L22.07 15.95L22.07 22ZM31.67 19.42L31.67 19.42L33.15 19.42Q33.15 20.15 33.63 20.55Q34.11 20.95 35.01 20.95L35.01 20.95Q35.78 20.95 36.17 20.63Q36.56 20.32 36.56 19.80L36.56 19.80Q36.56 19.24 36.16 18.94Q35.77 18.63 34.74 18.32Q33.71 18.01 33.10 17.63L33.10 17.63Q31.93 16.90 31.93 15.72L31.93 15.72Q31.93 14.69 32.77 14.02Q33.61 13.35 34.95 13.35L34.95 13.35Q35.84 13.35 36.54 13.68Q37.24 14.01 37.64 14.61Q38.04 15.22 38.04 15.96L38.04 15.96L36.56 15.96Q36.56 15.29 36.14 14.91Q35.72 14.54 34.94 14.54L34.94 14.54Q34.22 14.54 33.81 14.85Q33.41 15.16 33.41 15.71L33.41 15.71Q33.41 16.18 33.85 16.50Q34.28 16.81 35.28 17.10Q36.27 17.40 36.88 17.78Q37.48 18.16 37.76 18.65Q38.04 19.13 38.04 19.79L38.04 19.79Q38.04 20.86 37.22 21.49Q36.41 22.12 35.01 22.12L35.01 22.12Q34.08 22.12 33.30 21.77Q32.53 21.43 32.10 20.83Q31.67 20.22 31.67 19.42ZM43.81 22L42.33 22L42.33 13.47L45.59 13.47Q47.02 13.47 47.86 14.21Q48.71 14.96 48.71 16.18L48.71 16.18Q48.71 17.44 47.88 18.13Q47.06 18.83 45.58 18.83L45.58 18.83L43.81 18.83L43.81 22ZM43.81 14.66L43.81 17.64L45.59 17.64Q46.39 17.64 46.80 17.27Q47.22 16.90 47.22 16.19L47.22 16.19Q47.22 15.50 46.80 15.09Q46.37 14.68 45.64 14.66L45.64 14.66L43.81 14.66ZM54.55 22L53.08 22L53.08 13.47L54.55 13.47L54.55 22ZM60.85 22L59.36 22L59.36 13.47L62.36 13.47Q63.84 13.47 64.64 14.13Q65.45 14.79 65.45 16.05L65.45 16.05Q65.45 16.90 65.03 17.48Q64.62 18.06 63.88 18.37L63.88 18.37L65.80 21.92L65.80 22L64.21 22L62.50 18.71L60.85 18.71L60.85 22ZM60.85 14.66L60.85 17.52L62.37 17.52Q63.12 17.52 63.54 17.15Q63.96 16.77 63.96 16.11L63.96 16.11Q63.96 15.43 63.57 15.05Q63.18 14.68 62.41 14.66L62.41 14.66L60.85 14.66ZM75.42 22L69.84 22L69.84 13.47L75.38 13.47L75.38 14.66L71.32 14.66L71.32 17.02L74.83 17.02L74.83 18.19L71.32 18.19L71.32 20.82L75.42 20.82L75.42 22ZM82.07 22L79.61 22L79.61 13.47L82.13 13.47Q83.26 13.47 84.14 13.97Q85.02 14.48 85.50 15.40Q85.98 16.33 85.98 17.52L85.98 17.52L85.98 17.95Q85.98 19.16 85.49 20.08Q85.01 21.00 84.12 21.50Q83.22 22 82.07 22L82.07 22ZM81.10 14.66L81.10 20.82L82.06 20.82Q83.23 20.82 83.85 20.09Q84.48 19.36 84.49 17.99L84.49 17.99L84.49 17.52Q84.49 16.13 83.89 15.40Q83.28 14.66 82.13 14.66L82.13 14.66L81.10 14.66ZM99.53 22L96.42 22L96.42 13.47L99.34 13.47Q100.79 13.47 101.55 14.05Q102.30 14.63 102.30 15.78L102.30 15.78Q102.30 16.36 101.98 16.83Q101.67 17.30 101.06 17.56L101.06 17.56Q101.75 17.75 102.13 18.26Q102.51 18.78 102.51 19.51L102.51 19.51Q102.51 20.71 101.74 21.36Q100.97 22 99.53 22L99.53 22ZM97.90 18.15L97.90 20.82L99.55 20.82Q100.24 20.82 100.64 20.47Q101.03 20.13 101.03 19.51L101.03 19.51Q101.03 18.18 99.67 18.15L99.67 18.15L97.90 18.15ZM97.90 14.66L97.90 17.06L99.35 17.06Q100.05 17.06 100.43 16.75Q100.82 16.43 100.82 15.86L100.82 15.86Q100.82 15.23 100.46 14.95Q100.10 14.66 99.34 14.66L99.34 14.66L97.90 14.66ZM109.02 18.86L106.15 13.47L107.80 13.47L109.76 17.51L111.72 13.47L113.36 13.47L110.50 18.86L110.50 22L109.02 22L109.02 18.86Z" fill="#FFFFFF"/><path class="svg__text" d="M141.62 22L139.24 22L139.24 13.60L143.08 13.60Q144.22 13.60 145.06 13.98Q145.90 14.35 146.36 15.06Q146.81 15.76 146.81 16.71L146.81 16.71Q146.81 17.66 146.36 18.35Q145.90 19.05 145.06 19.42Q144.22 19.80 143.08 19.80L143.08 19.80L141.62 19.80L141.62 22ZM141.62 15.47L141.62 17.93L142.94 17.93Q143.67 17.93 144.04 17.61Q144.41 17.29 144.41 16.71L144.41 16.71Q144.41 16.12 144.04 15.80Q143.67 15.47 142.94 15.47L142.94 15.47L141.62 15.47ZM151.14 17.80L151.14 17.80Q151.14 16.55 151.74 15.55Q152.35 14.56 153.41 14.00Q154.47 13.43 155.80 13.43L155.80 13.43Q157.13 13.43 158.20 14.00Q159.26 14.56 159.87 15.55Q160.47 16.55 160.47 17.80L160.47 17.80Q160.47 19.05 159.87 20.04Q159.26 21.04 158.20 21.60Q157.14 22.17 155.80 22.17L155.80 22.17Q154.47 22.17 153.41 21.60Q152.35 21.04 151.74 20.04Q151.14 19.05 151.14 17.80ZM153.53 17.80L153.53 17.80Q153.53 18.51 153.84 19.05Q154.14 19.60 154.65 19.90Q155.17 20.20 155.80 20.20L155.80 20.20Q156.44 20.20 156.96 19.90Q157.47 19.60 157.77 19.05Q158.07 18.51 158.07 17.80L158.07 17.80Q158.07 17.09 157.77 16.54Q157.47 16 156.96 15.70Q156.44 15.40 155.80 15.40L155.80 15.40Q155.16 15.40 154.65 15.70Q154.14 16 153.84 16.54Q153.53 17.09 153.53 17.80ZM164.61 21.24L164.61 21.24L165.39 19.49Q165.96 19.86 166.70 20.09Q167.44 20.32 168.17 20.32L168.17 20.32Q169.53 20.32 169.54 19.64L169.54 19.64Q169.54 19.28 169.15 19.11Q168.76 18.93 167.89 18.74L167.89 18.74Q166.94 18.53 166.31 18.30Q165.67 18.06 165.22 17.55Q164.76 17.03 164.76 16.16L164.76 16.16Q164.76 15.39 165.18 14.77Q165.60 14.15 166.43 13.79Q167.27 13.43 168.48 13.43L168.48 13.43Q169.30 13.43 170.11 13.62Q170.91 13.80 171.53 14.17L171.53 14.17L170.80 15.93Q169.60 15.28 168.46 15.28L168.46 15.28Q167.76 15.28 167.43 15.49Q167.11 15.70 167.11 16.04L167.11 16.04Q167.11 16.37 167.49 16.54Q167.88 16.71 168.73 16.89L168.73 16.89Q169.69 17.10 170.32 17.33Q170.95 17.56 171.41 18.07Q171.87 18.58 171.87 19.46L171.87 19.46Q171.87 20.21 171.46 20.83Q171.04 21.44 170.20 21.80Q169.36 22.17 168.15 22.17L168.15 22.17Q167.13 22.17 166.17 21.92Q165.21 21.67 164.61 21.24ZM178.24 15.48L175.66 15.48L175.66 13.60L183.18 13.60L183.18 15.48L180.62 15.48L180.62 22L178.24 22L178.24 15.48ZM189.75 22L187.55 22L187.55 13.60L189.51 13.60L192.46 18.45L195.35 13.60L197.30 13.60L197.32 22L195.14 22L195.12 17.55L192.96 21.17L191.90 21.17L189.75 17.67L189.75 22ZM203.90 22L201.48 22L205.19 13.60L207.53 13.60L211.24 22L208.78 22L208.11 20.37L204.56 20.37L203.90 22ZM206.34 15.93L205.26 18.61L207.42 18.61L206.34 15.93ZM217.73 22L215.40 22L215.40 13.60L217.36 13.60L221.06 18.07L221.06 13.60L223.39 13.60L223.39 22L221.44 22L217.73 17.52L217.73 22Z" fill="#FFFFFF" x="138.05"/></svg>